<mxfile host="app.diagrams.net" modified="2024-05-25T13:35:29.346Z" agent="Mozilla/5.0 (Windows NT 10.0; Win64; x64) AppleWebKit/537.36 (KHTML, like Gecko) Chrome/125.0.0.0 Safari/537.36 Edg/125.0.0.0" etag="H34LIyKoqXnaysw_RAPR" version="24.4.8" type="github">
  <diagram name="第 1 页" id="lZvmM5MYoufRkFUfNJzQ">
    <mxGraphModel dx="965" dy="529" grid="1" gridSize="10" guides="1" tooltips="1" connect="1" arrows="1" fold="1" page="1" pageScale="1" pageWidth="1000" pageHeight="1000" math="0" shadow="0">
      <root>
        <mxCell id="0" />
        <mxCell id="1" parent="0" />
        <mxCell id="1cvSRd58AR3dUzsGinZY-3" value="Shared Memory" style="rounded=0;whiteSpace=wrap;html=1;fillColor=#f5f5f5;fontColor=#333333;strokeColor=#666666;" parent="1" vertex="1">
          <mxGeometry x="520" y="320" width="190" height="30" as="geometry" />
        </mxCell>
        <mxCell id="qro_Fb3TbMSUZuIelQu0-31" value="CPU" style="rounded=0;whiteSpace=wrap;html=1;" parent="1" vertex="1">
          <mxGeometry x="200" y="350" width="100" height="30" as="geometry" />
        </mxCell>
        <mxCell id="1cvSRd58AR3dUzsGinZY-1" value="Main Memory" style="rounded=0;whiteSpace=wrap;html=1;fillColor=#f5f5f5;fontColor=#333333;strokeColor=#666666;" parent="1" vertex="1">
          <mxGeometry x="200" y="320" width="100" height="30" as="geometry" />
        </mxCell>
        <mxCell id="qro_Fb3TbMSUZuIelQu0-32" value="GPU" style="rounded=0;whiteSpace=wrap;html=1;" parent="1" vertex="1">
          <mxGeometry x="320" y="350" width="170" height="30" as="geometry" />
        </mxCell>
        <mxCell id="1cvSRd58AR3dUzsGinZY-2" value="Global Memory" style="rounded=0;whiteSpace=wrap;html=1;fillColor=#f5f5f5;fontColor=#333333;strokeColor=#666666;" parent="1" vertex="1">
          <mxGeometry x="320" y="320" width="170" height="30" as="geometry" />
        </mxCell>
        <mxCell id="qro_Fb3TbMSUZuIelQu0-5" value="" style="rounded=0;whiteSpace=wrap;html=1;fillColor=#dae8fc;strokeColor=#6c8ebf;" parent="1" vertex="1">
          <mxGeometry x="320" y="130" width="170" height="190" as="geometry" />
        </mxCell>
        <mxCell id="qro_Fb3TbMSUZuIelQu0-1" value="" style="rounded=0;whiteSpace=wrap;html=1;fillColor=#dae8fc;strokeColor=#6c8ebf;" parent="1" vertex="1">
          <mxGeometry x="200" y="130" width="100" height="190" as="geometry" />
        </mxCell>
        <mxCell id="qro_Fb3TbMSUZuIelQu0-2" value="Host" style="text;html=1;align=center;verticalAlign=middle;whiteSpace=wrap;rounded=0;fontSize=18;" parent="1" vertex="1">
          <mxGeometry x="200" y="140" width="60" height="30" as="geometry" />
        </mxCell>
        <mxCell id="qro_Fb3TbMSUZuIelQu0-4" value="&lt;font style=&quot;font-size: 14px;&quot;&gt;Kernel&lt;/font&gt;" style="rounded=0;whiteSpace=wrap;html=1;fillColor=#d5e8d4;strokeColor=#82b366;fontSize=14;" parent="1" vertex="1">
          <mxGeometry x="215" y="220" width="70" height="40" as="geometry" />
        </mxCell>
        <mxCell id="qro_Fb3TbMSUZuIelQu0-6" value="" style="rounded=0;whiteSpace=wrap;html=1;fillColor=#d5e8d4;strokeColor=#82b366;" parent="1" vertex="1">
          <mxGeometry x="340" y="190" width="130" height="100" as="geometry" />
        </mxCell>
        <mxCell id="qro_Fb3TbMSUZuIelQu0-7" value="Device" style="text;html=1;align=center;verticalAlign=middle;whiteSpace=wrap;rounded=0;fontSize=18;" parent="1" vertex="1">
          <mxGeometry x="340" y="140" width="60" height="30" as="geometry" />
        </mxCell>
        <mxCell id="qro_Fb3TbMSUZuIelQu0-8" value="Grid" style="text;html=1;align=center;verticalAlign=middle;whiteSpace=wrap;rounded=0;fontSize=14;" parent="1" vertex="1">
          <mxGeometry x="330" y="190" width="60" height="30" as="geometry" />
        </mxCell>
        <mxCell id="qro_Fb3TbMSUZuIelQu0-11" value="Block" style="rounded=0;whiteSpace=wrap;html=1;fillColor=#fff2cc;strokeColor=#d6b656;" parent="1" vertex="1">
          <mxGeometry x="410" y="220" width="40" height="25" as="geometry" />
        </mxCell>
        <mxCell id="qro_Fb3TbMSUZuIelQu0-15" style="edgeStyle=orthogonalEdgeStyle;rounded=0;orthogonalLoop=1;jettySize=auto;html=1;exitX=1;exitY=0.5;exitDx=0;exitDy=0;entryX=0;entryY=0.5;entryDx=0;entryDy=0;" parent="1" source="qro_Fb3TbMSUZuIelQu0-4" target="qro_Fb3TbMSUZuIelQu0-6" edge="1">
          <mxGeometry relative="1" as="geometry" />
        </mxCell>
        <mxCell id="qro_Fb3TbMSUZuIelQu0-18" value="" style="rounded=0;whiteSpace=wrap;html=1;fillColor=#fff2cc;strokeColor=#d6b656;" parent="1" vertex="1">
          <mxGeometry x="520" y="140" width="190" height="180" as="geometry" />
        </mxCell>
        <mxCell id="qro_Fb3TbMSUZuIelQu0-19" value="Block" style="text;html=1;align=center;verticalAlign=middle;whiteSpace=wrap;rounded=0;fontSize=14;" parent="1" vertex="1">
          <mxGeometry x="520" y="140" width="60" height="30" as="geometry" />
        </mxCell>
        <mxCell id="qro_Fb3TbMSUZuIelQu0-29" value="SM" style="rounded=0;whiteSpace=wrap;html=1;" parent="1" vertex="1">
          <mxGeometry x="520" y="350" width="190" height="30" as="geometry" />
        </mxCell>
        <mxCell id="qro_Fb3TbMSUZuIelQu0-35" value="" style="endArrow=none;dashed=1;html=1;rounded=0;exitX=1;exitY=0;exitDx=0;exitDy=0;entryX=0;entryY=0;entryDx=0;entryDy=0;" parent="1" source="qro_Fb3TbMSUZuIelQu0-11" target="qro_Fb3TbMSUZuIelQu0-18" edge="1">
          <mxGeometry width="50" height="50" relative="1" as="geometry">
            <mxPoint x="560" y="250" as="sourcePoint" />
            <mxPoint x="610" y="200" as="targetPoint" />
          </mxGeometry>
        </mxCell>
        <mxCell id="qro_Fb3TbMSUZuIelQu0-36" value="" style="endArrow=none;dashed=1;html=1;rounded=0;exitX=1;exitY=1;exitDx=0;exitDy=0;entryX=0;entryY=1;entryDx=0;entryDy=0;" parent="1" source="qro_Fb3TbMSUZuIelQu0-11" target="qro_Fb3TbMSUZuIelQu0-18" edge="1">
          <mxGeometry width="50" height="50" relative="1" as="geometry">
            <mxPoint x="540" y="250" as="sourcePoint" />
            <mxPoint x="620" y="110" as="targetPoint" />
          </mxGeometry>
        </mxCell>
        <mxCell id="dpeHdoD42rJqPUdLCWWj-6" value="Block" style="rounded=0;whiteSpace=wrap;html=1;fillColor=#fff2cc;strokeColor=#d6b656;" vertex="1" parent="1">
          <mxGeometry x="410" y="255" width="40" height="25" as="geometry" />
        </mxCell>
        <mxCell id="dpeHdoD42rJqPUdLCWWj-7" value="Block" style="rounded=0;whiteSpace=wrap;html=1;fillColor=#fff2cc;strokeColor=#d6b656;" vertex="1" parent="1">
          <mxGeometry x="360" y="255" width="40" height="25" as="geometry" />
        </mxCell>
        <mxCell id="dpeHdoD42rJqPUdLCWWj-8" value="Block" style="rounded=0;whiteSpace=wrap;html=1;fillColor=#fff2cc;strokeColor=#d6b656;" vertex="1" parent="1">
          <mxGeometry x="360" y="220" width="40" height="25" as="geometry" />
        </mxCell>
        <mxCell id="dpeHdoD42rJqPUdLCWWj-16" value="" style="rounded=0;whiteSpace=wrap;html=1;fillColor=#f8cecc;strokeColor=#b85450;" vertex="1" parent="1">
          <mxGeometry x="552.5" y="170" width="125" height="130" as="geometry" />
        </mxCell>
        <mxCell id="qro_Fb3TbMSUZuIelQu0-20" value="Thread" style="rounded=0;whiteSpace=wrap;html=1;fillColor=#ffe6cc;strokeColor=#d79b00;" parent="1" vertex="1">
          <mxGeometry x="560" y="180" width="50" height="30" as="geometry" />
        </mxCell>
        <mxCell id="dpeHdoD42rJqPUdLCWWj-9" value="Thread" style="rounded=0;whiteSpace=wrap;html=1;fillColor=#ffe6cc;strokeColor=#d79b00;" vertex="1" parent="1">
          <mxGeometry x="560" y="220" width="50" height="30" as="geometry" />
        </mxCell>
        <mxCell id="dpeHdoD42rJqPUdLCWWj-10" value="Thread" style="rounded=0;whiteSpace=wrap;html=1;fillColor=#ffe6cc;strokeColor=#d79b00;" vertex="1" parent="1">
          <mxGeometry x="560" y="260" width="50" height="30" as="geometry" />
        </mxCell>
        <mxCell id="dpeHdoD42rJqPUdLCWWj-11" value="Thread" style="rounded=0;whiteSpace=wrap;html=1;fillColor=#ffe6cc;strokeColor=#d79b00;" vertex="1" parent="1">
          <mxGeometry x="620" y="260" width="50" height="30" as="geometry" />
        </mxCell>
        <mxCell id="dpeHdoD42rJqPUdLCWWj-12" value="Thread" style="rounded=0;whiteSpace=wrap;html=1;fillColor=#ffe6cc;strokeColor=#d79b00;" vertex="1" parent="1">
          <mxGeometry x="620" y="220" width="50" height="30" as="geometry" />
        </mxCell>
        <mxCell id="dpeHdoD42rJqPUdLCWWj-13" value="Thread" style="rounded=0;whiteSpace=wrap;html=1;fillColor=#ffe6cc;strokeColor=#d79b00;" vertex="1" parent="1">
          <mxGeometry x="620" y="180" width="50" height="30" as="geometry" />
        </mxCell>
      </root>
    </mxGraphModel>
  </diagram>
</mxfile>
